# xmcd
# 
# Track frame offsets:
#     150
#     30732
#     50980
#     72892
#     92377
#     123987
#     168905
#     194875
#     230355
#     264790
# 
# Disc length: 3975
# 
# Revision: 122
# Processed by: cddbd v1.5.2PL0 Copyright (c) Steve Scherf et al.
# Submitted via: fre:ac v1.0.17
# 
DISCID=850f850a
DTITLE=Metallica - S&M (99.4.21,22) [CD2)
DYEAR=1999
DGENRE=Heavy Metal
TTITLE0=Nothing Else Matters
TTITLE1=Until It Sleeps
TTITLE2=For Whom the Bell Tolls
TTITLE3=Human
TTITLE4=Wherever I May Roam
TTITLE5=The Outlaw Torn
TTITLE6=Sad But True
TTITLE7=One
TTITLE8=Enter Sandman
TTITLE9=Battery
EXTD=
EXTT0=
EXTT1=
EXTT2=
EXTT3=
EXTT4=
EXTT5=
EXTT6=
EXTT7=
EXTT8=
EXTT9=
PLAYORDER=
